<svg 
 xmlns="http://www.w3.org/2000/svg"
 xmlns:xlink="http://www.w3.org/1999/xlink"
 width="16px" height="21px">
<path fill-rule="evenodd"  fill="rgb(204, 204, 204)"
 d="M8.438,2.190 L5.338,2.190 L5.338,14.786 L14.212,14.788 L14.212,8.039 L10.216,8.039 C9.237,8.039 8.438,7.236 8.438,6.243 L8.438,2.190 ZM10.215,2.454 C10.215,3.906 10.216,6.239 10.216,6.239 L13.895,6.239 L10.215,2.454 ZM12.436,16.575 L12.436,19.272 C12.436,19.767 12.036,20.169 11.551,20.170 L0.884,20.185 C0.396,20.186 0.000,19.786 0.000,19.287 L0.000,4.889 C0.000,4.392 0.395,3.989 0.891,3.989 L3.553,3.989 L3.553,1.290 C3.553,0.793 3.947,0.390 4.443,0.390 L10.247,0.390 C10.494,0.390 10.835,0.534 11.009,0.712 L15.673,5.467 C15.847,5.645 15.989,5.995 15.989,6.239 L15.989,15.669 C15.989,16.166 15.589,16.570 15.104,16.571 L12.436,16.575 ZM10.659,16.577 L4.438,16.586 C3.949,16.587 3.553,16.187 3.553,15.687 L3.553,5.789 L1.785,5.789 L1.777,18.387 L10.659,18.387 L10.659,16.577 Z"/>
</svg>