<svg 
 xmlns="http://www.w3.org/2000/svg"
 xmlns:xlink="http://www.w3.org/1999/xlink"
 width="20px" height="20px">
<path fill-rule="evenodd"  fill="rgb(204, 204, 204)"
 d="M2.744,7.748 C3.222,3.499 6.709,0.202 10.940,0.202 C15.497,0.202 19.191,4.028 19.191,8.748 C19.191,10.062 18.905,11.308 18.393,12.420 L19.148,15.897 C19.358,16.864 18.769,17.471 17.834,17.252 L14.483,16.468 C13.656,16.876 12.754,17.146 11.803,17.248 C10.611,18.908 8.697,19.984 6.539,19.984 C5.433,19.984 4.391,19.701 3.478,19.202 L1.253,19.912 C0.330,20.206 -0.191,19.674 0.091,18.720 L0.769,16.424 C0.275,15.476 -0.005,14.393 -0.005,13.241 C-0.005,10.975 1.080,8.971 2.744,7.748 ZM12.798,15.217 C13.119,15.118 13.433,14.994 13.736,14.844 L14.279,14.576 L17.234,15.279 L16.567,12.208 L16.825,11.646 C17.238,10.750 17.454,9.766 17.454,8.748 C17.454,5.022 14.538,2.001 10.940,2.001 C8.008,2.001 5.528,4.007 4.711,6.766 C5.291,6.592 5.905,6.499 6.539,6.499 C10.154,6.499 13.084,9.518 13.084,13.241 C13.084,13.929 12.984,14.592 12.798,15.217 ZM2.650,16.240 L2.203,17.731 L3.651,17.269 L4.298,17.622 C4.982,17.996 5.745,18.194 6.539,18.194 C9.188,18.194 11.338,15.980 11.338,13.246 C11.338,10.512 9.188,8.298 6.539,8.298 C3.890,8.298 1.740,10.512 1.740,13.246 C1.740,14.075 1.937,14.871 2.308,15.583 L2.650,16.240 ZM6.539,14.146 C6.057,14.146 5.667,13.743 5.667,13.246 C5.667,12.749 6.057,12.346 6.539,12.346 C7.021,12.346 7.412,12.749 7.412,13.246 C7.412,13.743 7.021,14.146 6.539,14.146 ZM9.157,14.146 C8.675,14.146 8.284,13.743 8.284,13.246 C8.284,12.749 8.675,12.346 9.157,12.346 C9.639,12.346 10.029,12.749 10.029,13.246 C10.029,13.743 9.639,14.146 9.157,14.146 ZM3.922,14.146 C3.440,14.146 3.049,13.743 3.049,13.246 C3.049,12.749 3.440,12.346 3.922,12.346 C4.403,12.346 4.794,12.749 4.794,13.246 C4.794,13.743 4.403,14.146 3.922,14.146 Z"/>
</svg>