<svg 
 xmlns="http://www.w3.org/2000/svg"
 xmlns:xlink="http://www.w3.org/1999/xlink"
 width="20px" height="21px">
<path fill-rule="evenodd"  fill="rgb(204, 204, 204)"
 d="M3.693,9.818 C3.692,11.593 3.692,18.812 3.693,18.812 C3.693,18.812 4.824,18.812 6.411,18.813 L6.411,13.179 C6.411,12.662 6.816,12.243 7.314,12.243 L12.755,12.243 C13.253,12.243 13.658,12.662 13.658,13.179 L13.658,18.815 C15.244,18.815 16.376,18.816 16.376,18.817 L16.376,9.818 L10.034,3.254 L3.693,9.818 ZM1.881,11.693 L1.615,11.968 C1.261,12.334 0.688,12.334 0.334,11.968 C-0.020,11.601 -0.020,11.007 0.334,10.640 L9.393,1.255 C9.747,0.889 10.321,0.889 10.674,1.255 L19.734,10.640 C20.088,11.007 20.088,11.601 19.734,11.968 C19.381,12.334 18.807,12.334 18.453,11.968 L18.187,11.693 L18.187,18.817 C18.187,19.853 17.378,20.689 16.375,20.689 L3.693,20.689 C2.693,20.689 1.881,19.853 1.881,18.817 L1.881,11.693 ZM8.222,18.813 C9.400,18.813 10.669,18.814 11.846,18.814 L11.846,14.118 L8.222,14.120 L8.222,18.813 Z"/>
</svg>