<svg 
 xmlns="http://www.w3.org/2000/svg"
 xmlns:xlink="http://www.w3.org/1999/xlink"
 width="65px" height="64px">
<path fill-rule="evenodd"  fill="rgb(185, 183, 183)"
 d="M64.431,29.494 L64.431,34.786 L56.596,34.786 C56.099,39.456 54.255,43.719 51.468,47.196 L56.998,52.723 L53.253,56.466 L47.724,50.939 C44.245,53.725 39.980,55.568 35.308,56.064 L35.308,63.896 L30.013,63.896 L30.013,56.039 C25.365,55.512 21.122,53.662 17.668,50.868 L12.068,56.466 L8.323,52.723 L13.948,47.102 C11.202,43.641 9.383,39.415 8.891,34.786 L0.891,34.786 L0.891,29.494 L8.916,29.494 C9.439,24.889 11.265,20.685 14.018,17.249 L8.323,11.556 L12.068,7.814 L17.763,13.506 C21.200,10.754 25.406,8.929 30.013,8.407 L30.013,0.384 L35.308,0.384 L35.308,8.381 C39.939,8.874 44.167,10.691 47.629,13.436 L53.253,7.814 L56.998,11.556 L51.397,17.154 C54.192,20.607 56.043,24.848 56.570,29.494 L64.431,29.494 ZM32.702,13.615 C22.443,13.615 14.127,21.927 14.127,32.181 C14.127,42.435 22.443,50.748 32.702,50.748 C42.961,50.748 51.277,42.435 51.277,32.181 C51.277,21.927 42.961,13.615 32.702,13.615 ZM32.619,45.424 C25.302,45.424 19.370,39.495 19.370,32.181 C19.370,24.867 25.302,18.938 32.619,18.938 C39.936,18.938 45.868,24.867 45.868,32.181 C45.868,39.495 39.936,45.424 32.619,45.424 ZM32.619,24.183 C28.200,24.183 24.618,27.764 24.618,32.181 C24.618,36.598 28.200,40.179 32.619,40.179 C37.038,40.179 40.621,36.598 40.621,32.181 C40.621,27.764 37.038,24.183 32.619,24.183 Z"/>
</svg>