<svg 
 xmlns="http://www.w3.org/2000/svg"
 xmlns:xlink="http://www.w3.org/1999/xlink"
 width="62px" height="72px">
<path fill-rule="evenodd"  fill="rgb(185, 183, 183)"
 d="M61.942,48.738 C61.942,49.564 61.893,50.379 61.807,51.183 L59.578,51.183 L56.705,51.183 L49.085,51.183 L49.085,46.689 L56.749,46.689 C55.832,38.881 49.861,32.618 42.170,31.227 C41.181,30.198 40.080,29.289 38.931,28.439 L38.931,25.905 C44.574,25.888 49.143,21.332 49.143,15.712 C49.143,10.082 44.557,5.518 38.900,5.518 C38.666,5.518 38.437,5.537 38.207,5.552 C37.051,3.917 35.624,2.490 33.992,1.326 C35.548,0.800 37.209,0.501 38.944,0.501 C47.449,0.501 54.344,7.362 54.344,15.826 C54.344,20.726 52.024,25.078 48.428,27.884 C56.393,31.490 61.942,39.460 61.942,48.738 ZM39.019,15.747 C39.019,20.670 36.676,25.040 33.050,27.844 C41.090,31.427 46.741,39.407 46.752,48.713 C46.753,49.548 46.703,50.371 46.615,51.183 L43.839,51.183 L41.380,51.183 L5.860,51.183 L3.365,51.183 L0.690,51.183 C0.605,50.379 0.556,49.564 0.556,48.738 C0.556,39.419 6.153,31.416 14.175,27.833 C10.557,25.029 8.220,20.664 8.220,15.747 C8.220,7.283 15.115,0.422 23.620,0.422 C32.124,0.422 39.019,7.283 39.019,15.747 ZM5.814,46.689 L41.426,46.689 C40.440,38.295 33.610,31.686 25.087,30.998 C24.603,31.043 24.115,31.072 23.620,31.072 C23.125,31.072 22.636,31.043 22.153,30.998 C13.629,31.686 6.800,38.295 5.814,46.689 ZM23.575,5.518 C17.918,5.518 13.332,10.082 13.332,15.712 C13.332,21.342 17.918,25.907 23.575,25.907 C29.233,25.907 33.819,21.342 33.819,15.712 C33.819,10.082 29.233,5.518 23.575,5.518 Z"/>
</svg>