<svg 
 xmlns="http://www.w3.org/2000/svg"
 xmlns:xlink="http://www.w3.org/1999/xlink"
 width="48px" height="48px">
<path fill-rule="evenodd"  fill="rgb(254, 254, 254)"
 d="M23.996,48.004 C10.747,48.004 0.007,37.256 0.007,23.996 C0.007,10.737 10.747,-0.012 23.996,-0.012 C37.246,-0.012 47.986,10.737 47.986,23.996 C47.986,37.256 37.246,48.004 23.996,48.004 ZM33.459,21.250 L23.809,11.526 C22.244,9.949 19.698,9.940 18.122,11.506 C16.547,13.072 16.538,15.620 18.103,17.197 L24.939,24.085 L18.103,30.974 C16.538,32.551 16.547,35.099 18.122,36.665 C18.906,37.444 19.931,37.834 20.956,37.834 C21.989,37.834 23.023,37.437 23.809,36.645 L33.459,26.921 C35.016,25.352 35.016,22.819 33.459,21.250 Z"/>
</svg>